Iconomi-Logo<svg viewBox="0 0 28 18" xmlns="http://www.w3.org/2000/svg"><g id="www" fill="none" fill-rule="evenodd"><g id="2fa" transform="translate(-250 -49)"><g id="logo_square_green" transform="translate(250 49)"><path d="M15.804 10.93c0 3.98 2.75 7.045 7.009 7.045a7.614 7.614 0 0 0 4.793-1.676c.381-.323.4-.723.114-1.104l-.382-.514c-.305-.438-.687-.438-1.107-.133-.63.457-1.795 1.18-3.323 1.18-2.922 0-4.564-2.304-4.564-4.836 0-2.494 1.585-4.645 4.545-4.645 1.394 0 2.463.57 3.055.952.459.285.821.247 1.089-.19l.343-.553c.268-.419.249-.8-.152-1.104C26.498 4.838 25.009 4 22.794 4c-4.106 0-6.99 3.008-6.99 6.93zm-4.346-6.256c0-.351.292-.636.642-.636h1.261c.355 0 .643.292.643.636v12.69a.642.642 0 0 1-.643.636H12.1a.644.644 0 0 1-.642-.636V4.674z" id="Combined-Shape" fill="#138C6B"/><rect id="Combined-Shape-Copy" fill="#8EBFB2" x="11.458" y=".038" width="2.55" height="2.55" rx=".635"/><rect id="Rectangle-4-Copy-27" fill="#8EBFB2" y="14.827" width="2.546" height="3.173" rx=".635"/><rect id="Rectangle-4-Copy-28" fill="#8EBFB2" x="3.819" y="16.096" width="2.546" height="1.904" rx=".635"/><rect id="Rectangle-4-Copy-29" fill="#8EBFB2" x="7.638" y="12.288" width="2.546" height="5.712" rx=".635"/></g></g></g></svg>