<?xml version="1.0" encoding="UTF-8"?>
<svg width="130px" height="34px" viewBox="0 0 130 34" version="1.1" xmlns="http://www.w3.org/2000/svg" xmlns:xlink="http://www.w3.org/1999/xlink">
    <!-- Generator: Sketch 41.1 (35376) - http://www.bohemiancoding.com/sketch -->
    <title>logo.2</title>
    <desc>Created with Sketch.</desc>
    <defs></defs>
    <g id="UI" stroke="none" stroke-width="1" fill="none" fill-rule="evenodd">
        <g id="Main-3" transform="translate(-149.000000, -92.000000)">
            <g id="logo.green" transform="translate(149.000000, 92.000000)">
                <g id="logo" stroke-width="1">
                    <rect id="Rectangle-194-Copy-4" fill="#C3EBD5" x="0" y="5" width="24" height="24" rx="1"></rect>
                    <rect id="Rectangle-194-Copy-5" fill="#9CDDB9" x="9" y="3" width="24" height="28" rx="1"></rect>
                    <rect id="Rectangle-194-Copy-6" fill="#38BA72" x="18" y="0" width="24" height="34" rx="1"></rect>
                </g>
                <path d="M51.714,14.754 L51.714,12.78 L59.554,12.78 L59.554,14.754 L56.852,14.754 L56.852,23 L54.416,23 L54.416,14.754 L51.714,14.754 Z M71.0899999,21.754 C70.2313289,22.6780046 69.0646739,23.14 67.5899999,23.14 C66.1059925,23.14 64.9393375,22.6780046 64.0899999,21.754 C63.2313289,20.8113286 62.8019999,19.5233415 62.8019999,17.89 C62.8019999,16.2566585 63.2313289,14.973338 64.0899999,14.04 C64.9393375,13.106662 66.1059925,12.64 67.5899999,12.64 C69.0740073,12.64 70.2406623,13.106662 71.0899999,14.04 C71.9486709,14.973338 72.3779999,16.2566585 72.3779999,17.89 C72.3779999,19.5233415 71.9486709,20.8113286 71.0899999,21.754 Z M69.9419999,17.89 C69.9419999,15.6966557 69.1580077,14.6 67.5899999,14.6 C66.0219921,14.6 65.2379999,15.6966557 65.2379999,17.89 C65.2379999,20.0833443 66.0219921,21.18 67.5899999,21.18 C69.1580077,21.18 69.9419999,20.0833443 69.9419999,17.89 Z M75.9759998,23 L75.9759998,12.78 L78.3559998,12.78 L78.3559998,17.162 L78.3839998,17.162 L81.2119998,12.78 L83.9559998,12.78 L80.5959998,17.68 L84.0959998,23 L81.3519998,23 L78.3839998,18.198 L78.3559998,18.198 L78.3559998,23 L75.9759998,23 Z M94.1479997,12.78 L94.1479997,14.698 L90.0039997,14.698 L90.0039997,16.784 L93.8679997,16.784 L93.8679997,18.59 L90.0039997,18.59 L90.0039997,21.082 L94.1479997,21.082 L94.1479997,23 L87.6239997,23 L87.6239997,12.78 L94.1479997,12.78 Z M100.518,16.728 L100.518,23 L98.2359996,23 L98.2359996,12.78 L100.518,12.78 L103.822,19.052 L103.85,19.052 L103.85,12.78 L106.132,12.78 L106.132,23 L103.85,23 L100.546,16.728 L100.518,16.728 Z M112.166,17.89 C112.166,18.9633387 112.415664,19.7916637 112.915,20.375 C113.414335,20.9583363 114.088662,21.25 114.938,21.25 C115.675337,21.25 116.477995,21.1006682 117.346,20.802 L117.346,22.818 C116.468662,23.0326677 115.572671,23.14 114.658,23.14 C113.127325,23.14 111.923337,22.6873379 111.046,21.782 C110.168662,20.8766621 109.73,19.5793418 109.73,17.89 C109.73,17.0593292 109.839665,16.3196699 110.059,15.671 C110.278334,15.0223301 110.593331,14.4740022 111.004,14.026 C111.414668,13.5779978 111.920997,13.2350012 112.523,12.997 C113.125003,12.7589988 113.803996,12.64 114.56,12.64 C115.521338,12.64 116.407995,12.7473323 117.22,12.962 L117.22,15.006 C116.351995,14.7073318 115.55867,14.558 114.84,14.558 C113.990662,14.558 113.332669,14.8403305 112.866,15.405 C112.399331,15.9696695 112.166,16.7979945 112.166,17.89 Z M124.051999,19.08 L120.733999,12.78 L123.449999,12.78 L125.297999,17.162 L125.325999,17.162 L127.173999,12.78 L129.833999,12.78 L126.501999,19.08 L126.501999,23 L124.051999,23 L124.051999,19.08 Z" id="TOKENCY" fill="#FFFFFF"></path>
            </g>
        </g>
    </g>
</svg>