<?xml version="1.0" encoding="UTF-8"?>
<svg width="116px" height="16px" viewBox="0 0 116 16" version="1.1" xmlns="http://www.w3.org/2000/svg" xmlns:xlink="http://www.w3.org/1999/xlink">
    <!-- Generator: Sketch 41.2 (35397) - http://www.bohemiancoding.com/sketch -->
    <title>TOKENCY</title>
    <desc>Created with Sketch.</desc>
    <defs></defs>
    <g id="UI" stroke="none" stroke-width="1" fill="none" fill-rule="evenodd">
        <g id="Coming-soon" transform="translate(-662.000000, -100.000000)" fill="#FFFFFF">
            <path d="M662,103.139068 L662,100.207885 L673.641577,100.207885 L673.641577,103.139068 L669.629391,103.139068 L669.629391,115.383513 L666.012186,115.383513 L666.012186,103.139068 L662,103.139068 Z M690.771326,113.533333 C689.49629,114.905383 687.76393,115.591398 685.574194,115.591398 C683.370598,115.591398 681.638238,114.905383 680.377061,113.533333 C679.102025,112.133565 678.464516,110.22104 678.464516,107.795699 C678.464516,105.370358 679.102025,103.464762 680.377061,102.078853 C681.638238,100.692944 683.370598,100 685.574194,100 C687.777789,100 689.510149,100.692944 690.771326,102.078853 C692.046362,103.464762 692.683871,105.370358 692.683871,107.795699 C692.683871,110.22104 692.046362,112.133565 690.771326,113.533333 Z M689.066667,107.795699 C689.066667,104.538813 687.902521,102.910394 685.574194,102.910394 C683.245867,102.910394 682.08172,104.538813 682.08172,107.795699 C682.08172,111.052585 683.245867,112.681004 685.574194,112.681004 C687.902521,112.681004 689.066667,111.052585 689.066667,107.795699 Z M698.026523,115.383513 L698.026523,100.207885 L701.560573,100.207885 L701.560573,106.714695 L701.602151,106.714695 L705.801434,100.207885 L709.875986,100.207885 L704.886738,107.483871 L710.083871,115.383513 L706.009319,115.383513 L701.602151,108.253047 L701.560573,108.253047 L701.560573,115.383513 L698.026523,115.383513 Z M725.010036,100.207885 L725.010036,103.055914 L718.856631,103.055914 L718.856631,106.153405 L724.594265,106.153405 L724.594265,108.835126 L718.856631,108.835126 L718.856631,112.535484 L725.010036,112.535484 L725.010036,115.383513 L715.322581,115.383513 L715.322581,100.207885 L725.010036,100.207885 Z M734.468817,106.070251 L734.468817,115.383513 L731.080287,115.383513 L731.080287,100.207885 L734.468817,100.207885 L739.37491,109.521147 L739.416487,109.521147 L739.416487,100.207885 L742.805018,100.207885 L742.805018,115.383513 L739.416487,115.383513 L734.510394,106.070251 L734.468817,106.070251 Z M751.764875,107.795699 C751.764875,109.389494 752.1356,110.61947 752.877061,111.485663 C753.618522,112.351856 754.619826,112.784946 755.881004,112.784946 C756.975872,112.784946 758.167735,112.563204 759.456631,112.119713 L759.456631,115.113262 C758.153876,115.432021 756.823424,115.591398 755.465233,115.591398 C753.192342,115.591398 751.404546,114.919242 750.101792,113.57491 C748.799038,112.230579 748.14767,110.304194 748.14767,107.795699 C748.14767,106.56224 748.310512,105.463924 748.636201,104.500717 C748.961889,103.53751 749.429627,102.723301 750.039426,102.058065 C750.649226,101.392828 751.401071,100.883514 752.294982,100.530108 C753.188893,100.176701 754.197127,100 755.319713,100 C756.747199,100 758.063793,100.159377 759.269534,100.478136 L759.269534,103.513262 C757.980639,103.069771 756.802634,102.848029 755.735484,102.848029 C754.474307,102.848029 753.497256,103.26726 752.804301,104.105735 C752.111347,104.94421 751.764875,106.174185 751.764875,107.795699 Z M769.414337,109.562724 L764.487455,100.207885 L768.52043,100.207885 L771.264516,106.714695 L771.306093,106.714695 L774.050179,100.207885 L778,100.207885 L773.05233,109.562724 L773.05233,115.383513 L769.414337,115.383513 L769.414337,109.562724 Z" id="TOKENCY"></path>
        </g>
    </g>
</svg>